<svg width="174" height="24" viewBox="0 0 174 24" fill="none" xmlns="http://www.w3.org/2000/svg">
  <!-- Pixel art text: vdistefano.studio -->
  <!-- 3px pixels -->

  <!-- v -->
  <rect x="0" y="6" width="3" height="3" fill="#22c55e"/>
  <rect x="6" y="6" width="3" height="3" fill="#22c55e"/>
  <rect x="0" y="9" width="3" height="3" fill="#10b981"/>
  <rect x="6" y="9" width="3" height="3" fill="#10b981"/>
  <rect x="0" y="12" width="3" height="3" fill="#10b981"/>
  <rect x="6" y="12" width="3" height="3" fill="#10b981"/>
  <rect x="3" y="15" width="3" height="3" fill="#22c55e"/>

  <!-- d (stem on right) -->
  <rect x="18" y="0" width="3" height="3" fill="#059669"/>
  <rect x="18" y="3" width="3" height="3" fill="#10b981"/>
  <rect x="12" y="6" width="3" height="3" fill="#22c55e"/>
  <rect x="15" y="6" width="3" height="3" fill="#22c55e"/>
  <rect x="18" y="6" width="3" height="3" fill="#10b981"/>
  <rect x="12" y="9" width="3" height="3" fill="#10b981"/>
  <rect x="18" y="9" width="3" height="3" fill="#10b981"/>
  <rect x="12" y="12" width="3" height="3" fill="#10b981"/>
  <rect x="18" y="12" width="3" height="3" fill="#10b981"/>
  <rect x="12" y="15" width="3" height="3" fill="#22c55e"/>
  <rect x="15" y="15" width="3" height="3" fill="#22c55e"/>
  <rect x="18" y="15" width="3" height="3" fill="#10b981"/>

  <!-- i -->
  <rect x="24" y="3" width="3" height="3" fill="#22c55e"/>
  <rect x="24" y="9" width="3" height="3" fill="#10b981"/>
  <rect x="24" y="12" width="3" height="3" fill="#10b981"/>
  <rect x="24" y="15" width="3" height="3" fill="#22c55e"/>

  <!-- s -->
  <rect x="30" y="6" width="3" height="3" fill="#22c55e"/>
  <rect x="33" y="6" width="3" height="3" fill="#22c55e"/>
  <rect x="30" y="9" width="3" height="3" fill="#10b981"/>
  <rect x="36" y="12" width="3" height="3" fill="#10b981"/>
  <rect x="30" y="15" width="3" height="3" fill="#22c55e"/>
  <rect x="33" y="15" width="3" height="3" fill="#22c55e"/>

  <!-- t -->
  <rect x="42" y="3" width="3" height="3" fill="#059669"/>
  <rect x="39" y="6" width="3" height="3" fill="#10b981"/>
  <rect x="42" y="6" width="3" height="3" fill="#22c55e"/>
  <rect x="45" y="6" width="3" height="3" fill="#10b981"/>
  <rect x="42" y="9" width="3" height="3" fill="#10b981"/>
  <rect x="42" y="12" width="3" height="3" fill="#10b981"/>
  <rect x="42" y="15" width="3" height="3" fill="#10b981"/>
  <rect x="45" y="15" width="3" height="3" fill="#22c55e"/>

  <!-- e -->
  <rect x="51" y="6" width="3" height="3" fill="#22c55e"/>
  <rect x="54" y="6" width="3" height="3" fill="#22c55e"/>
  <rect x="51" y="9" width="3" height="3" fill="#10b981"/>
  <rect x="54" y="9" width="3" height="3" fill="#10b981"/>
  <rect x="57" y="9" width="3" height="3" fill="#10b981"/>
  <rect x="51" y="12" width="3" height="3" fill="#10b981"/>
  <rect x="51" y="15" width="3" height="3" fill="#22c55e"/>
  <rect x="54" y="15" width="3" height="3" fill="#22c55e"/>

  <!-- f -->
  <rect x="63" y="3" width="3" height="3" fill="#22c55e"/>
  <rect x="66" y="3" width="3" height="3" fill="#22c55e"/>
  <rect x="63" y="6" width="3" height="3" fill="#10b981"/>
  <rect x="60" y="9" width="3" height="3" fill="#10b981"/>
  <rect x="63" y="9" width="3" height="3" fill="#22c55e"/>
  <rect x="66" y="9" width="3" height="3" fill="#10b981"/>
  <rect x="63" y="12" width="3" height="3" fill="#10b981"/>
  <rect x="63" y="15" width="3" height="3" fill="#10b981"/>

  <!-- a -->
  <rect x="72" y="6" width="3" height="3" fill="#22c55e"/>
  <rect x="75" y="6" width="3" height="3" fill="#22c55e"/>
  <rect x="78" y="9" width="3" height="3" fill="#10b981"/>
  <rect x="72" y="9" width="3" height="3" fill="#22c55e"/>
  <rect x="75" y="9" width="3" height="3" fill="#10b981"/>
  <rect x="72" y="12" width="3" height="3" fill="#10b981"/>
  <rect x="78" y="12" width="3" height="3" fill="#10b981"/>
  <rect x="72" y="15" width="3" height="3" fill="#22c55e"/>
  <rect x="75" y="15" width="3" height="3" fill="#22c55e"/>
  <rect x="78" y="15" width="3" height="3" fill="#10b981"/>

  <!-- n -->
  <rect x="84" y="6" width="3" height="3" fill="#10b981"/>
  <rect x="87" y="6" width="3" height="3" fill="#22c55e"/>
  <rect x="84" y="9" width="3" height="3" fill="#10b981"/>
  <rect x="90" y="9" width="3" height="3" fill="#10b981"/>
  <rect x="84" y="12" width="3" height="3" fill="#10b981"/>
  <rect x="90" y="12" width="3" height="3" fill="#10b981"/>
  <rect x="84" y="15" width="3" height="3" fill="#22c55e"/>
  <rect x="90" y="15" width="3" height="3" fill="#22c55e"/>

  <!-- o -->
  <rect x="96" y="6" width="3" height="3" fill="#22c55e"/>
  <rect x="99" y="6" width="3" height="3" fill="#22c55e"/>
  <rect x="96" y="9" width="3" height="3" fill="#10b981"/>
  <rect x="102" y="9" width="3" height="3" fill="#10b981"/>
  <rect x="96" y="12" width="3" height="3" fill="#10b981"/>
  <rect x="102" y="12" width="3" height="3" fill="#10b981"/>
  <rect x="96" y="15" width="3" height="3" fill="#22c55e"/>
  <rect x="99" y="15" width="3" height="3" fill="#22c55e"/>

  <!-- . (red dot) -->
  <rect x="108" y="15" width="3" height="3" fill="#ef4444"/>

  <!-- s -->
  <rect x="114" y="6" width="3" height="3" fill="#22c55e"/>
  <rect x="117" y="6" width="3" height="3" fill="#22c55e"/>
  <rect x="114" y="9" width="3" height="3" fill="#10b981"/>
  <rect x="120" y="12" width="3" height="3" fill="#10b981"/>
  <rect x="114" y="15" width="3" height="3" fill="#22c55e"/>
  <rect x="117" y="15" width="3" height="3" fill="#22c55e"/>

  <!-- t -->
  <rect x="126" y="3" width="3" height="3" fill="#059669"/>
  <rect x="123" y="6" width="3" height="3" fill="#10b981"/>
  <rect x="126" y="6" width="3" height="3" fill="#22c55e"/>
  <rect x="129" y="6" width="3" height="3" fill="#10b981"/>
  <rect x="126" y="9" width="3" height="3" fill="#10b981"/>
  <rect x="126" y="12" width="3" height="3" fill="#10b981"/>
  <rect x="126" y="15" width="3" height="3" fill="#10b981"/>
  <rect x="129" y="15" width="3" height="3" fill="#22c55e"/>

  <!-- u -->
  <rect x="135" y="6" width="3" height="3" fill="#22c55e"/>
  <rect x="141" y="6" width="3" height="3" fill="#22c55e"/>
  <rect x="135" y="9" width="3" height="3" fill="#10b981"/>
  <rect x="141" y="9" width="3" height="3" fill="#10b981"/>
  <rect x="135" y="12" width="3" height="3" fill="#10b981"/>
  <rect x="141" y="12" width="3" height="3" fill="#10b981"/>
  <rect x="135" y="15" width="3" height="3" fill="#22c55e"/>
  <rect x="138" y="15" width="3" height="3" fill="#22c55e"/>
  <rect x="141" y="15" width="3" height="3" fill="#10b981"/>

  <!-- d (stem on right) -->
  <rect x="153" y="0" width="3" height="3" fill="#059669"/>
  <rect x="153" y="3" width="3" height="3" fill="#10b981"/>
  <rect x="147" y="6" width="3" height="3" fill="#22c55e"/>
  <rect x="150" y="6" width="3" height="3" fill="#22c55e"/>
  <rect x="153" y="6" width="3" height="3" fill="#10b981"/>
  <rect x="147" y="9" width="3" height="3" fill="#10b981"/>
  <rect x="153" y="9" width="3" height="3" fill="#10b981"/>
  <rect x="147" y="12" width="3" height="3" fill="#10b981"/>
  <rect x="153" y="12" width="3" height="3" fill="#10b981"/>
  <rect x="147" y="15" width="3" height="3" fill="#22c55e"/>
  <rect x="150" y="15" width="3" height="3" fill="#22c55e"/>
  <rect x="153" y="15" width="3" height="3" fill="#10b981"/>

  <!-- i -->
  <rect x="159" y="3" width="3" height="3" fill="#22c55e"/>
  <rect x="159" y="9" width="3" height="3" fill="#10b981"/>
  <rect x="159" y="12" width="3" height="3" fill="#10b981"/>
  <rect x="159" y="15" width="3" height="3" fill="#22c55e"/>

  <!-- o -->
  <rect x="165" y="6" width="3" height="3" fill="#22c55e"/>
  <rect x="168" y="6" width="3" height="3" fill="#22c55e"/>
  <rect x="165" y="9" width="3" height="3" fill="#10b981"/>
  <rect x="171" y="9" width="3" height="3" fill="#10b981"/>
  <rect x="165" y="12" width="3" height="3" fill="#10b981"/>
  <rect x="171" y="12" width="3" height="3" fill="#10b981"/>
  <rect x="165" y="15" width="3" height="3" fill="#22c55e"/>
  <rect x="168" y="15" width="3" height="3" fill="#22c55e"/>
</svg>